<?xml version="1.0" encoding="UTF-8"?>
<svg width="800" height="800" version="1.1" viewBox="0 0 800 800" xmlns="http://www.w3.org/2000/svg">
 <g fill="#c6a434">
  <path d="m400 50c-193.3 0-350 156.7-350 350s156.7 350 350 350 350-156.7 350-350-156.7-350-350-350zm0 50c165.7 0 300 134.3 300 300s-134.3 300-300 300-300-134.3-300-300 134.3-300 300-300z"/>
  <path d="m400 150c-137.5 0-250 112.5-250 250s112.5 250 250 250 250-112.5 250-250-112.5-250-250-250zm0 50c110 0 200 90 200 200s-90 200-200 200-200-90-200-200 90-200 200-200z"/>
  <path d="m550 400-150-150v100h-200v100h200v100z"/>
 </g>
</svg>